<?xml version="1.0" encoding="UTF-8" standalone="no"?><!DOCTYPE svg PUBLIC "-//W3C//DTD SVG 1.1//EN" "http://www.w3.org/Graphics/SVG/1.1/DTD/svg11.dtd"><!-- Generated by graphviz version 2.40.1 (20161225.0304)
 --><!-- Title: dependencies Pages: 1 --><svg xmlns="http://www.w3.org/2000/svg" xmlns:xlink="http://www.w3.org/1999/xlink" width="576pt" height="717pt" viewBox="0.00 0.00 576.00 717.17">
<g id="graph0" class="graph" transform="scale(.9851 .9851) rotate(0) translate(4 724)">
<title>dependencies</title>
<polygon fill="#ffffff" stroke="transparent" points="-4,4 -4,-724 580.6963,-724 580.6963,4 -4,4"/>
<!-- UseSqlite.py -->
<g id="node1" class="node">
<title>UseSqlite.py</title>
<ellipse fill="#d3d3d3" stroke="#000000" cx="155.6963" cy="-602.5106" rx="29.378" ry="18"/>
<text text-anchor="middle" x="155.6963" y="-600.4106" font-family="Times,serif" font-size="7.00" fill="#000000">UseSqlite.py</text>
</g>
<!-- sqlite3 -->
<g id="node2" class="node">
<title>sqlite3</title>
<ellipse fill="none" stroke="#000000" cx="290.6963" cy="-605.5106" rx="27" ry="18"/>
<text text-anchor="middle" x="290.6963" y="-603.4106" font-family="Times,serif" font-size="7.00" fill="#000000">sqlite3</text>
</g>
<!-- UseSqlite.py&#45;&gt;sqlite3 -->
<g id="edge1" class="edge">
<title>UseSqlite.py-&gt;sqlite3</title>
<path fill="none" stroke="#000000" d="M184.9893,-603.1616C204.9822,-603.6059 231.6429,-604.1983 253.1872,-604.6771"/>
<polygon fill="#000000" stroke="#000000" points="253.2255,-608.1787 263.3008,-604.9018 253.3811,-601.1804 253.2255,-608.1787"/>
</g>
<!-- WordFreq.py -->
<g id="node3" class="node">
<title>WordFreq.py</title>
<ellipse fill="#d3d3d3" stroke="#000000" cx="155.6963" cy="-531.5106" rx="30.117" ry="18"/>
<text text-anchor="middle" x="155.6963" y="-529.4106" font-family="Times,serif" font-size="7.00" fill="#000000">WordFreq.py</text>
</g>
<!-- string.py -->
<g id="node4" class="node">
<title>string.py</title>
<ellipse fill="none" stroke="#000000" cx="423.6963" cy="-697.5106" rx="27" ry="18"/>
<text text-anchor="middle" x="423.6963" y="-695.4106" font-family="Times,serif" font-size="7.00" fill="#000000">string.py</text>
</g>
<!-- WordFreq.py&#45;&gt;string.py -->
<g id="edge2" class="edge">
<title>WordFreq.py-&gt;string.py</title>
<path fill="none" stroke="#000000" d="M185.7106,-534.046C222.013,-538.3191 283.7442,-549.552 327.9603,-578.5106 332.9447,-581.7751 378.1362,-639.1336 404.6093,-673.0057"/>
<polygon fill="#000000" stroke="#000000" points="401.988,-675.3356 410.9007,-681.064 407.5056,-671.0279 401.988,-675.3356"/>
</g>
<!-- wordfreqCMD.py -->
<g id="node5" class="node">
<title>wordfreqCMD.py</title>
<ellipse fill="#d3d3d3" stroke="#000000" cx="290.6963" cy="-487.5106" rx="37.0295" ry="18"/>
<text text-anchor="middle" x="290.6963" y="-485.4106" font-family="Times,serif" font-size="7.00" fill="#000000">wordfreqCMD.py</text>
</g>
<!-- WordFreq.py&#45;&gt;wordfreqCMD.py -->
<g id="edge3" class="edge">
<title>WordFreq.py-&gt;wordfreqCMD.py</title>
<path fill="none" stroke="#000000" d="M182.368,-522.8177C201.5593,-516.5627 227.8037,-508.009 249.6539,-500.8874"/>
<polygon fill="#000000" stroke="#000000" points="250.9197,-504.1562 259.3428,-497.7296 248.7504,-497.5007 250.9197,-504.1562"/>
</g>
<!-- wordfreqCMD.py&#45;&gt;string.py -->
<g id="edge23" class="edge">
<title>wordfreqCMD.py-&gt;string.py</title>
<path fill="none" stroke="#000000" d="M306.1131,-504.3627C313.205,-512.5402 321.4651,-522.6995 327.9603,-532.5106 361.9456,-583.8456 358.7264,-603.5029 391.6728,-655.5106 395.4972,-661.5476 399.9611,-667.8016 404.3206,-673.5808"/>
<polygon fill="#000000" stroke="#000000" points="401.6591,-675.8605 410.5466,-681.6279 407.1955,-671.577 401.6591,-675.8605"/>
</g>
<!-- os.py -->
<g id="node12" class="node">
<title>os.py</title>
<ellipse fill="none" stroke="#000000" cx="423.6963" cy="-421.5106" rx="27" ry="18"/>
<text text-anchor="middle" x="423.6963" y="-419.4106" font-family="Times,serif" font-size="7.00" fill="#000000">os.py</text>
</g>
<!-- wordfreqCMD.py&#45;&gt;os.py -->
<g id="edge22" class="edge">
<title>wordfreqCMD.py-&gt;os.py</title>
<path fill="none" stroke="#000000" d="M316.9728,-474.4712C338.7968,-463.6412 369.8788,-448.2171 392.8746,-436.8056"/>
<polygon fill="#000000" stroke="#000000" points="394.4718,-439.9203 401.8737,-432.3399 391.3602,-433.6499 394.4718,-439.9203"/>
</g>
<!-- pickle_idea.py -->
<g id="node14" class="node">
<title>pickle_idea.py</title>
<ellipse fill="#d3d3d3" stroke="#000000" cx="423.6963" cy="-352.5106" rx="32.047" ry="18"/>
<text text-anchor="middle" x="423.6963" y="-350.4106" font-family="Times,serif" font-size="7.00" fill="#000000">pickle_idea.py</text>
</g>
<!-- wordfreqCMD.py&#45;&gt;pickle_idea.py -->
<g id="edge25" class="edge">
<title>wordfreqCMD.py-&gt;pickle_idea.py</title>
<path fill="none" stroke="#000000" d="M306.7392,-471.2265C330.2319,-447.3805 374.1056,-402.8471 400.9276,-375.6217"/>
<polygon fill="#000000" stroke="#000000" points="403.4847,-378.0133 408.0095,-368.4333 398.4981,-373.1007 403.4847,-378.0133"/>
</g>
<!-- collections.py -->
<g id="node16" class="node">
<title>collections.py</title>
<ellipse fill="none" stroke="#000000" cx="423.6963" cy="-628.5106" rx="30.8682" ry="18"/>
<text text-anchor="middle" x="423.6963" y="-626.4106" font-family="Times,serif" font-size="7.00" fill="#000000">collections.py</text>
</g>
<!-- wordfreqCMD.py&#45;&gt;collections.py -->
<g id="edge20" class="edge">
<title>wordfreqCMD.py-&gt;collections.py</title>
<path fill="none" stroke="#000000" d="M306.2134,-503.9611C329.764,-528.9283 374.6346,-576.4978 401.5907,-605.0753"/>
<polygon fill="#000000" stroke="#000000" points="399.2782,-607.7246 408.686,-612.5974 404.3703,-602.9214 399.2782,-607.7246"/>
</g>
<!-- operator -->
<g id="node17" class="node">
<title>operator</title>
<ellipse fill="none" stroke="#000000" cx="423.6963" cy="-559.5106" rx="27" ry="18"/>
<text text-anchor="middle" x="423.6963" y="-557.4106" font-family="Times,serif" font-size="7.00" fill="#000000">operator</text>
</g>
<!-- wordfreqCMD.py&#45;&gt;operator -->
<g id="edge21" class="edge">
<title>wordfreqCMD.py-&gt;operator</title>
<path fill="none" stroke="#000000" d="M315.7126,-501.0533C337.9001,-513.0646 370.3458,-530.6291 393.8757,-543.3671"/>
<polygon fill="#000000" stroke="#000000" points="392.2695,-546.4775 402.7298,-548.1604 395.602,-540.3217 392.2695,-546.4775"/>
</g>
<!-- sys -->
<g id="node18" class="node">
<title>sys</title>
<ellipse fill="none" stroke="#000000" cx="423.6963" cy="-490.5106" rx="27" ry="18"/>
<text text-anchor="middle" x="423.6963" y="-488.4106" font-family="Times,serif" font-size="7.00" fill="#000000">sys</text>
</g>
<!-- wordfreqCMD.py&#45;&gt;sys -->
<g id="edge24" class="edge">
<title>wordfreqCMD.py-&gt;sys</title>
<path fill="none" stroke="#000000" d="M328.0982,-488.3543C346.3386,-488.7657 368.2173,-489.2592 386.4386,-489.6702"/>
<polygon fill="#000000" stroke="#000000" points="386.6127,-493.175 396.6891,-489.9015 386.7707,-486.1767 386.6127,-493.175"/>
</g>
<!-- difficulty.py -->
<g id="node6" class="node">
<title>difficulty.py</title>
<ellipse fill="#d3d3d3" stroke="#000000" cx="155.6963" cy="-345.5106" rx="28.5644" ry="18"/>
<text text-anchor="middle" x="155.6963" y="-343.4106" font-family="Times,serif" font-size="7.00" fill="#000000">difficulty.py</text>
</g>
<!-- difficulty.py&#45;&gt;wordfreqCMD.py -->
<g id="edge6" class="edge">
<title>difficulty.py-&gt;wordfreqCMD.py</title>
<path fill="none" stroke="#000000" d="M170.4007,-360.9774C193.8625,-385.6558 239.9488,-434.1317 267.7688,-463.3942"/>
<polygon fill="#000000" stroke="#000000" points="265.3333,-465.9122 274.7601,-470.7481 270.4065,-461.0891 265.3333,-465.9122"/>
</g>
<!-- math -->
<g id="node7" class="node">
<title>math</title>
<ellipse fill="none" stroke="#000000" cx="290.6963" cy="-316.5106" rx="27" ry="18"/>
<text text-anchor="middle" x="290.6963" y="-314.4106" font-family="Times,serif" font-size="7.00" fill="#000000">math</text>
</g>
<!-- difficulty.py&#45;&gt;math -->
<g id="edge4" class="edge">
<title>difficulty.py-&gt;math</title>
<path fill="none" stroke="#000000" d="M183.0156,-339.6421C203.7276,-335.1928 232.3755,-329.0388 254.9157,-324.1968"/>
<polygon fill="#000000" stroke="#000000" points="255.7499,-327.5976 264.7918,-322.0753 254.2797,-320.7537 255.7499,-327.5976"/>
</g>
<!-- pickle.py -->
<g id="node8" class="node">
<title>pickle.py</title>
<ellipse fill="none" stroke="#000000" cx="542.6963" cy="-293.5106" rx="27" ry="18"/>
<text text-anchor="middle" x="542.6963" y="-291.4106" font-family="Times,serif" font-size="7.00" fill="#000000">pickle.py</text>
</g>
<!-- difficulty.py&#45;&gt;pickle.py -->
<g id="edge5" class="edge">
<title>difficulty.py-&gt;pickle.py</title>
<path fill="none" stroke="#000000" d="M184.2223,-347.4627C218.5345,-349.286 277.7855,-350.7593 327.9603,-343.5106 357.083,-339.3033 363.1057,-332.5642 391.6728,-325.5106 430.8299,-315.8422 476.1383,-306.4829 506.8349,-300.4103"/>
<polygon fill="#000000" stroke="#000000" points="507.517,-303.8433 516.6548,-298.4812 506.1677,-296.9745 507.517,-303.8433"/>
</g>
<!-- main.py -->
<g id="node9" class="node">
<title>main.py</title>
<ellipse fill="#d3d3d3" stroke="#000000" cx="33.6963" cy="-316.5106" rx="27" ry="18"/>
<text text-anchor="middle" x="33.6963" y="-314.4106" font-family="Times,serif" font-size="7.00" fill="#000000">main.py</text>
</g>
<!-- main.py&#45;&gt;UseSqlite.py -->
<g id="edge11" class="edge">
<title>main.py-&gt;UseSqlite.py</title>
<path fill="none" stroke="#000000" d="M38.1367,-334.3213C48.8289,-375.5009 78.3683,-479.7932 121.707,-558.5106 125.4837,-565.3704 130.2801,-572.3011 135.0706,-578.5689"/>
<polygon fill="#000000" stroke="#000000" points="132.5321,-580.9994 141.5031,-586.6361 138.0052,-576.6353 132.5321,-580.9994"/>
</g>
<!-- main.py&#45;&gt;WordFreq.py -->
<g id="edge12" class="edge">
<title>main.py-&gt;WordFreq.py</title>
<path fill="none" stroke="#000000" d="M41.5166,-333.93C55.8683,-365.3212 88.0416,-433.0876 121.707,-486.5106 126.1112,-493.4995 131.3044,-500.7698 136.2882,-507.3768"/>
<polygon fill="#000000" stroke="#000000" points="133.5354,-509.5385 142.4138,-515.3198 139.0785,-505.2636 133.5354,-509.5385"/>
</g>
<!-- main.py&#45;&gt;wordfreqCMD.py -->
<g id="edge16" class="edge">
<title>main.py-&gt;wordfreqCMD.py</title>
<path fill="none" stroke="#000000" d="M41.6117,-333.7277C54.5872,-360.0421 82.8753,-410.0917 121.707,-437.5106 158.1033,-463.2099 207.7745,-475.8506 243.8405,-481.9735"/>
<polygon fill="#000000" stroke="#000000" points="243.6722,-485.4905 254.0974,-483.6024 244.7702,-478.5772 243.6722,-485.4905"/>
</g>
<!-- main.py&#45;&gt;difficulty.py -->
<g id="edge13" class="edge">
<title>main.py-&gt;difficulty.py</title>
<path fill="none" stroke="#000000" d="M59.2715,-322.59C76.5659,-326.7009 99.6738,-332.1938 118.9328,-336.7718"/>
<polygon fill="#000000" stroke="#000000" points="118.3492,-340.2305 128.8875,-339.1381 119.9681,-333.4202 118.3492,-340.2305"/>
</g>
<!-- datetime -->
<g id="node10" class="node">
<title>datetime</title>
<ellipse fill="none" stroke="#000000" cx="290.6963" cy="-150.5106" rx="27" ry="18"/>
<text text-anchor="middle" x="290.6963" y="-148.4106" font-family="Times,serif" font-size="7.00" fill="#000000">datetime</text>
</g>
<!-- main.py&#45;&gt;datetime -->
<g id="edge7" class="edge">
<title>main.py-&gt;datetime</title>
<path fill="none" stroke="#000000" d="M39.9951,-298.85C51.4073,-269.5835 78.4122,-211.3988 121.707,-182.5106 161.2687,-156.1134 217.0181,-150.1763 253.4975,-149.4582"/>
<polygon fill="#000000" stroke="#000000" points="253.7289,-152.9567 263.703,-149.3835 253.6776,-145.9569 253.7289,-152.9567"/>
</g>
<!-- glob.py -->
<g id="node11" class="node">
<title>glob.py</title>
<ellipse fill="none" stroke="#000000" cx="155.6963" cy="-91.5106" rx="27" ry="18"/>
<text text-anchor="middle" x="155.6963" y="-89.4106" font-family="Times,serif" font-size="7.00" fill="#000000">glob.py</text>
</g>
<!-- main.py&#45;&gt;glob.py -->
<g id="edge8" class="edge">
<title>main.py-&gt;glob.py</title>
<path fill="none" stroke="#000000" d="M40.8936,-299.0562C54.7227,-266.2154 86.7504,-193.4201 121.707,-136.5106 126.0307,-129.4717 131.1965,-122.1843 136.1797,-115.577"/>
<polygon fill="#000000" stroke="#000000" points="138.9679,-117.6928 142.3169,-107.6412 133.4306,-113.4105 138.9679,-117.6928"/>
</g>
<!-- main.py&#45;&gt;os.py -->
<g id="edge9" class="edge">
<title>main.py-&gt;os.py</title>
<path fill="none" stroke="#000000" d="M51.0806,-330.619C68.0525,-343.6238 95.1341,-362.3942 121.707,-372.5106 212.5973,-407.1133 327.9611,-417.2844 386.2914,-420.2712"/>
<polygon fill="#000000" stroke="#000000" points="386.3476,-423.7775 396.5005,-420.7495 386.6753,-416.7852 386.3476,-423.7775"/>
</g>
<!-- random.py -->
<g id="node13" class="node">
<title>random.py</title>
<ellipse fill="none" stroke="#000000" cx="155.6963" cy="-22.5106" rx="27" ry="18"/>
<text text-anchor="middle" x="155.6963" y="-20.4106" font-family="Times,serif" font-size="7.00" fill="#000000">random.py</text>
</g>
<!-- main.py&#45;&gt;random.py -->
<g id="edge10" class="edge">
<title>main.py-&gt;random.py</title>
<path fill="none" stroke="#000000" d="M37.7121,-298.5194C47.6935,-255.9118 76.1571,-146.2907 121.707,-64.5106 125.2644,-58.1238 129.806,-51.733 134.4029,-45.9326"/>
<polygon fill="#000000" stroke="#000000" points="137.3604,-47.8506 141.0693,-37.9261 131.9809,-43.3716 137.3604,-47.8506"/>
</g>
<!-- main.py&#45;&gt;pickle_idea.py -->
<g id="edge14" class="edge">
<title>main.py-&gt;pickle_idea.py</title>
<path fill="none" stroke="#000000" d="M57.9547,-308.2486C109.0775,-292.1334 231.1445,-260.513 327.9603,-289.5106 354.7369,-297.5306 380.9557,-315.7205 399.1653,-330.5034"/>
<polygon fill="#000000" stroke="#000000" points="397.0252,-333.2762 406.9415,-337.007 401.5161,-327.9066 397.0252,-333.2762"/>
</g>
<!-- pickle_idea2.py -->
<g id="node15" class="node">
<title>pickle_idea2.py</title>
<ellipse fill="#d3d3d3" stroke="#000000" cx="155.6963" cy="-209.5106" rx="33.9787" ry="18"/>
<text text-anchor="middle" x="155.6963" y="-207.4106" font-family="Times,serif" font-size="7.00" fill="#000000">pickle_idea2.py</text>
</g>
<!-- main.py&#45;&gt;pickle_idea2.py -->
<g id="edge15" class="edge">
<title>main.py-&gt;pickle_idea2.py</title>
<path fill="none" stroke="#000000" d="M50.1498,-302.0801C70.7189,-284.04 106.1464,-252.9684 130.2293,-231.8464"/>
<polygon fill="#000000" stroke="#000000" points="132.7135,-234.3231 137.9238,-225.098 128.0979,-229.0604 132.7135,-234.3231"/>
</g>
<!-- pickle_idea.py&#45;&gt;pickle.py -->
<g id="edge17" class="edge">
<title>pickle_idea.py-&gt;pickle.py</title>
<path fill="none" stroke="#000000" d="M447.7777,-340.5711C466.1873,-331.4437 491.7093,-318.7899 511.6524,-308.9022"/>
<polygon fill="#000000" stroke="#000000" points="513.2528,-312.0153 520.6574,-304.4375 510.1434,-305.7438 513.2528,-312.0153"/>
</g>
<!-- pickle_idea2.py&#45;&gt;pickle.py -->
<g id="edge19" class="edge">
<title>pickle_idea2.py-&gt;pickle.py</title>
<path fill="none" stroke="#000000" d="M187.3662,-216.3847C258.7447,-231.8777 431.7956,-269.4392 506.9115,-285.7434"/>
<polygon fill="#000000" stroke="#000000" points="506.325,-289.1975 516.8399,-287.8984 507.8099,-282.3568 506.325,-289.1975"/>
</g>
<!-- pickle_idea2.py&#45;&gt;datetime -->
<g id="edge18" class="edge">
<title>pickle_idea2.py-&gt;datetime</title>
<path fill="none" stroke="#000000" d="M182.0462,-197.9948C204.0321,-188.3861 235.4366,-174.6612 258.8328,-164.4362"/>
<polygon fill="#000000" stroke="#000000" points="260.2402,-167.6408 268.0017,-160.4291 257.4369,-161.2266 260.2402,-167.6408"/>
</g>
</g>
</svg>